<svg width="15" height="15" viewBox="0 0 15 15" fill="none" xmlns="http://www.w3.org/2000/svg">
<path d="M9.70012 4.41875C11.4012 4.41875 12.7801 3.92626 12.7801 3.31875C12.7801 2.71124 11.4012 2.21875 9.70012 2.21875C7.99908 2.21875 6.62012 2.71124 6.62012 3.31875C6.62012 3.92626 7.99908 4.41875 9.70012 4.41875Z" stroke="white" stroke-width="0.6" stroke-miterlimit="10" stroke-linecap="round" stroke-linejoin="round"/>
<path d="M6.62012 3.53906C6.62012 3.7397 6.62012 4.65842 6.62012 4.85906C6.62012 5.46648 7.99864 5.95906 9.70012 5.95906C11.4016 5.95906 12.7801 5.46648 12.7801 4.85906C12.7801 4.65842 12.7801 3.7397 12.7801 3.53906" stroke="white" stroke-width="0.6" stroke-miterlimit="10" stroke-linecap="round" stroke-linejoin="round"/>
<path d="M8.28125 7.3747C8.70585 7.45346 9.18853 7.49813 9.70025 7.49813C11.4017 7.49813 12.7803 7.00555 12.7803 6.39813C12.7803 6.19749 12.7803 5.27877 12.7803 5.07812" stroke="white" stroke-width="0.6" stroke-miterlimit="10" stroke-linecap="round" stroke-linejoin="round"/>
<path d="M6.62012 5.07812C6.62012 5.27876 6.62012 6.01752 6.62012 6.01752" stroke="white" stroke-width="0.6" stroke-miterlimit="10" stroke-linecap="round" stroke-linejoin="round"/>
<path d="M8.38574 8.93225C8.78438 8.99957 9.22988 9.03719 9.70024 9.03719C11.4017 9.03719 12.7802 8.54483 12.7802 7.93719C12.7802 7.73655 12.7802 6.81783 12.7802 6.61719" stroke="white" stroke-width="0.6" stroke-miterlimit="10" stroke-linecap="round" stroke-linejoin="round"/>
<path d="M8.36816 10.4684C8.77098 10.5375 9.22264 10.5763 9.6996 10.5763C11.4011 10.5763 12.7796 10.0839 12.7796 9.47625C12.7796 9.27561 12.7796 8.35689 12.7796 8.15625" stroke="white" stroke-width="0.6" stroke-miterlimit="10" stroke-linecap="round" stroke-linejoin="round"/>
<path d="M5.29973 8.16094C7.00076 8.16094 8.37973 7.66845 8.37973 7.06094C8.37973 6.45342 7.00076 5.96094 5.29973 5.96094C3.59869 5.96094 2.21973 6.45342 2.21973 7.06094C2.21973 7.66845 3.59869 8.16094 5.29973 8.16094Z" stroke="white" stroke-width="0.6" stroke-miterlimit="10" stroke-linecap="round" stroke-linejoin="round"/>
<path d="M2.21973 7.28125C2.21973 7.48189 2.21973 8.40061 2.21973 8.60125C2.21973 9.20889 3.59825 9.70125 5.29973 9.70125C7.00121 9.70125 8.37973 9.20889 8.37973 8.60125C8.37973 8.40061 8.37973 7.48189 8.37973 7.28125" stroke="white" stroke-width="0.6" stroke-miterlimit="10" stroke-linecap="round" stroke-linejoin="round"/>
<path d="M2.21973 8.82031C2.21973 9.02095 2.21973 9.93967 2.21973 10.1403C2.21973 10.748 3.59825 11.2403 5.29973 11.2403C7.00121 11.2403 8.37973 10.748 8.37973 10.1403C8.37973 9.93967 8.37973 9.02095 8.37973 8.82031" stroke="white" stroke-width="0.6" stroke-miterlimit="10" stroke-linecap="round" stroke-linejoin="round"/>
<path d="M2.21973 10.3594C2.21973 10.56 2.21973 11.4787 2.21973 11.6794C2.21973 12.287 3.59825 12.7794 5.29973 12.7794C7.00121 12.7794 8.37973 12.287 8.37973 11.6794C8.37973 11.4787 8.37973 10.56 8.37973 10.3594" stroke="white" stroke-width="0.6" stroke-miterlimit="10" stroke-linecap="round" stroke-linejoin="round"/>
</svg>
